<?xml version="1.0" encoding="utf-8"?>
<!-- Generator: Adobe Illustrator 27.2.0, SVG Export Plug-In . SVG Version: 6.00 Build 0)  -->
<svg version="1.1" xmlns="http://www.w3.org/2000/svg" xmlns:xlink="http://www.w3.org/1999/xlink" x="0px" y="0px"
	 viewBox="0 0 281.7 242.3" style="enable-background:new 0 0 281.7 242.3;" xml:space="preserve">
<style type="text/css">
	.st0{fill:none;stroke:#205182;stroke-width:6;stroke-linecap:round;stroke-miterlimit:10;}
	.st1{display:none;fill:#353535;}
	.st2{fill:none;stroke:#EEF7FF;stroke-width:6;stroke-linecap:round;stroke-miterlimit:10;}
</style>
<g id="Layer_1">
	<path class="st0" d="M-298.7,226.5c18-26.8,30.2-50.8,38.3-68.7c14.1-31.2,26.2-59,26.1-95.2c-0.1-23.2-5.2-55.7-14.9-56.7
		c-9.3-1-20.7,27.4-25.5,47c-11.9,48.5,4.7,90.7,11.1,105c9.9,22.1,31.3,69.9,59.3,69.7c40.6-0.3,76.5-101.3,74.2-178.6
		c-0.1-4.5-1.5-44.7-10.1-45.8c-9-1.1-21.1,41.4-22.9,47.6c-26.9,94.3-1.6,183.7,4.6,183.2c4.5-0.4-7.1-48.4,21.1-73.3
		c13.9-12.3,38.2-19.5,51.3-10.1C-66,165-88.4,208-66,229.2c11.4,10.8,29.1,11,43,9.2"/>
</g>
<g id="Layer_2">
	<rect x="-3.7" y="-2" class="st1" width="286.9" height="246"/>
	<path class="st2" d="M3,226.5c18-26.8,30.2-50.8,38.3-68.7c14.1-31.2,26.2-59,26.1-95.2C67.3,39.3,62.1,6.8,52.5,5.8
		c-9.3-1-20.7,27.4-25.5,47c-11.9,48.5,4.7,90.7,11.1,105c9.9,22.1,31.3,69.9,59.3,69.7c40.6-0.3,76.5-101.3,74.2-178.6
		C171.4,44.3,170,4.1,161.4,3c-9-1.1-21.1,41.4-22.9,47.6c-26.9,94.3-1.6,183.7,4.6,183.2c4.5-0.4-7.1-48.4,21.1-73.3
		c13.9-12.3,38.2-19.5,51.3-10.1c20.2,14.6-2.2,57.6,20.1,78.8c11.4,10.8,29.1,11,43,9.2"/>
</g>
</svg>
